<?xml version="1.0" encoding="iso-8859-1"?>
<!-- Generator: Adobe Illustrator 16.0.0, SVG Export Plug-In . SVG Version: 6.00 Build 0)  -->
<!DOCTYPE svg PUBLIC "-//W3C//DTD SVG 1.1//EN" "http://www.w3.org/Graphics/SVG/1.1/DTD/svg11.dtd">
<svg xmlns="http://www.w3.org/2000/svg" xmlns:xlink="http://www.w3.org/1999/xlink" version="1.1" id="Capa_1" x="0px" y="0px" width="512px" height="512px" viewBox="0 0 171.014 171.014" style="enable-background:new 0 0 171.014 171.014;" xml:space="preserve">
<g>
	<g>
		<path d="M97.518,125.128c0-7.617,2.186-14.656,5.718-20.812l-1.602-42.018h18.906l-1.011,26.101    c4.646-2.521,9.755-4.171,15.247-4.798l-0.815-21.303h23.517V51.797L78.739,14.392L0,51.797v10.501h23.513l-2.6,68.238h-7.782    v5.248H0.012v10.504h103.431C99.764,140.053,97.518,132.875,97.518,125.128z M53.244,130.537H39.567l-2.612-68.238h18.907    L53.244,130.537z M85.585,130.537H71.91l-2.618-68.238h18.903L85.585,130.537z" fill="#FFFFFF"/>
		<path d="M139.514,93.624c-17.391,0-31.493,14.103-31.493,31.505c0,17.391,14.103,31.494,31.493,31.494s31.5-14.104,31.5-31.494    S156.905,93.624,139.514,93.624z M133.109,138.44l-13.494-14.906l4.549-4.116l9.529,10.54L155.48,111.8l3.934,4.707    L133.109,138.44z" fill="#FFFFFF"/>
	</g>
</g>
<g>
</g>
<g>
</g>
<g>
</g>
<g>
</g>
<g>
</g>
<g>
</g>
<g>
</g>
<g>
</g>
<g>
</g>
<g>
</g>
<g>
</g>
<g>
</g>
<g>
</g>
<g>
</g>
<g>
</g>
</svg>
