<?xml version="1.0" encoding="iso-8859-1"?>
<!-- Generator: Adobe Illustrator 18.0.0, SVG Export Plug-In . SVG Version: 6.00 Build 0)  -->
<!DOCTYPE svg PUBLIC "-//W3C//DTD SVG 1.1//EN" "http://www.w3.org/Graphics/SVG/1.1/DTD/svg11.dtd">
<svg xmlns="http://www.w3.org/2000/svg" xmlns:xlink="http://www.w3.org/1999/xlink" version="1.1" id="Capa_1" x="0px" y="0px" viewBox="0 0 297 297" style="enable-background:new 0 0 297 297;" xml:space="preserve" width="512px" height="512px">
<path d="M289.879,7.234c-4.737-4.734-11.246-7.133-19.348-7.133c-32.883,0-98.292,43.275-162.765,107.688  c-36.415,36.385-67.168,74.236-86.593,106.582c-22.274,37.09-27.002,62.457-14.054,75.394c4.737,4.732,11.246,7.133,19.347,7.133  c32.883,0,98.293-43.277,162.765-107.691c36.415-36.383,67.169-74.232,86.594-106.58C298.1,45.537,302.828,20.172,289.879,7.234z   M258.399,72.162c-18.595,30.963-48.262,67.424-83.536,102.664C108.72,240.912,49.039,276.57,26.467,276.57  c-2.411,0-4.226-0.432-4.979-1.186c-2.093-2.088-3.527-15.326,15.542-47.895c4.069,1.721,9.851,3.201,17.746,3.201  c7.785,0,17.614-1.441,29.837-5.512c5.325-1.773,8.205-7.527,6.431-12.854c-1.772-5.326-7.523-8.209-12.854-6.432  c-15.447,5.145-24.847,4.869-29.92,3.813c5.964-8.832,12.68-17.99,20.038-27.342c4.079,1.76,9.94,3.297,17.984,3.297  c7.784,0,17.613-1.439,29.834-5.51c5.326-1.773,8.206-7.529,6.434-12.855c-1.774-5.326-7.529-8.203-12.855-6.432  c-13.069,4.352-21.807,4.824-27.261,4.227c7.182-8.455,14.818-16.996,22.829-25.529c4.092,1.818,10.039,3.438,18.294,3.438  c7.786,0,17.616-1.441,29.84-5.514c5.326-1.773,8.206-7.529,6.431-12.853c-1.773-5.326-7.528-8.209-12.855-6.432  c-11.579,3.857-19.755,4.666-25.265,4.385c0.139-0.139,0.276-0.277,0.416-0.418c9.68-9.67,19.215-18.67,28.522-27.021  c4.063,1.703,9.813,3.162,17.645,3.162c7.786,0,17.614-1.441,29.837-5.512c5.324-1.773,8.204-7.529,6.431-12.855  c-1.772-5.324-7.523-8.209-12.854-6.43c-8.927,2.973-15.832,4.135-21.053,4.383c10.041-8.297,19.685-15.717,28.814-22.266  c4.087,2.063,10.436,4.082,19.656,4.082c7.786,0,17.614-1.441,29.837-5.512c5.326-1.773,8.205-7.529,6.432-12.853  c-1.772-5.326-7.528-8.211-12.854-6.434c-7.314,2.438-13.27,3.656-18.056,4.154c20.403-12.277,36.527-18.637,46.041-18.637  c2.411,0,4.227,0.432,4.98,1.186C277.659,23.76,279.124,37.65,258.399,72.162z" fill="#D80027"/>
<g>
</g>
<g>
</g>
<g>
</g>
<g>
</g>
<g>
</g>
<g>
</g>
<g>
</g>
<g>
</g>
<g>
</g>
<g>
</g>
<g>
</g>
<g>
</g>
<g>
</g>
<g>
</g>
<g>
</g>
</svg>
