<?xml version="1.0" encoding="iso-8859-1"?>
<!-- Generator: Adobe Illustrator 17.1.0, SVG Export Plug-In . SVG Version: 6.00 Build 0)  -->
<!DOCTYPE svg PUBLIC "-//W3C//DTD SVG 1.1//EN" "http://www.w3.org/Graphics/SVG/1.1/DTD/svg11.dtd">
<svg xmlns="http://www.w3.org/2000/svg" xmlns:xlink="http://www.w3.org/1999/xlink" version="1.1" id="Capa_1" x="0px" y="0px" viewBox="0 0 294.881 294.881" style="enable-background:new 0 0 294.881 294.881;" xml:space="preserve" width="512px" height="512px">
<path d="M240.402,0H54.483C24.442,0,0.001,24.44,0.001,54.48v185.919c0,30.041,24.441,54.481,54.482,54.481h185.918  c30.04,0,54.479-24.44,54.479-54.481V54.48C294.88,24.44,270.441,0,240.402,0z M278.88,240.399  c0,21.219-17.261,38.481-38.479,38.481H54.483c-21.219,0-38.482-17.263-38.482-38.481V54.48C16.001,33.262,33.264,16,54.483,16  h185.918c21.217,0,38.479,17.262,38.479,38.48V240.399z M245.207,155.441c4.418,0,8-3.582,8-8s-3.582-8-8-8h-89.767V49.673  c0-4.418-3.582-8-8-8s-8,3.582-8,8V67.1H83.099V49.673c0-4.418-3.582-8-8-8s-8,3.582-8,8V67.1H49.674c-4.418,0-8,3.582-8,8  s3.582,8,8,8h17.425v56.342H49.674c-4.418,0-8,3.582-8,8s3.582,8,8,8h17.425v56.34H49.674c-4.418,0-8,3.582-8,8s3.582,8,8,8h17.425  v17.427c0,4.418,3.582,8,8,8s8-3.582,8-8v-17.427h56.342v17.427c0,4.418,3.582,8,8,8s8-3.582,8-8v-17.427h56.341v17.425  c0,4.418,3.582,8,8,8s8-3.582,8-8v-17.425h17.425c4.418,0,8-3.582,8-8s-3.582-8-8-8h-17.425v-56.34H245.207z M139.441,211.781  H83.099v-56.34h56.342V211.781z M139.441,139.441H83.099V83.1h56.342V139.441z M211.782,211.781h-56.341v-56.34h56.341V211.781z   M219.786,30.266c-24.721,0-44.832,20.111-44.832,44.832c0,24.719,20.111,44.83,44.832,44.83c24.72,0,44.832-20.111,44.832-44.83  C264.618,50.377,244.506,30.266,219.786,30.266z M219.786,103.928c-15.898,0-28.832-12.933-28.832-28.83  c0-15.898,12.934-28.832,28.832-28.832s28.832,12.934,28.832,28.832C248.618,90.995,235.684,103.928,219.786,103.928z" fill="#D80027"/>
<g>
</g>
<g>
</g>
<g>
</g>
<g>
</g>
<g>
</g>
<g>
</g>
<g>
</g>
<g>
</g>
<g>
</g>
<g>
</g>
<g>
</g>
<g>
</g>
<g>
</g>
<g>
</g>
<g>
</g>
</svg>
