<?xml version="1.0" encoding="iso-8859-1"?>
<!-- Generator: Adobe Illustrator 16.0.0, SVG Export Plug-In . SVG Version: 6.00 Build 0)  -->
<!DOCTYPE svg PUBLIC "-//W3C//DTD SVG 1.1//EN" "http://www.w3.org/Graphics/SVG/1.1/DTD/svg11.dtd">
<svg xmlns="http://www.w3.org/2000/svg" xmlns:xlink="http://www.w3.org/1999/xlink" version="1.1" id="Capa_1" x="0px" y="0px" width="512px" height="512px" viewBox="0 0 89.236 89.236" style="enable-background:new 0 0 89.236 89.236;" xml:space="preserve">
<g>
	<path d="M55.204,30.368c0.438-4.853,0.975-13.743-0.705-15.282l-8.689-7.934c-1.853-1.692-4.51-1.913-6.594-0.779L33.05,0.749   c-1.164-1.064-2.979-0.987-4.043,0.184C27.94,2.1,28.028,3.911,29.191,4.976l5.915,5.4l-6.089,6.677l-5.916-5.397   c-1.17-1.066-2.979-0.986-4.045,0.181c-1.068,1.167-0.984,2.979,0.187,4.045l6.196,5.655c-0.862,2.153-0.375,4.699,1.438,6.354   l8.687,7.934c1.622,1.479,10.284-0.19,15.444-1.354c11.479,7.479,21.974,15.937,21.396,28.14c-0.4,7.796-2.765,13.648-6.643,16.468   c-3.008,2.19-7.028,2.628-12.039,1.287c-3.302-0.767-7.431-3.741-11.426-6.622c-6.613-4.768-13.442-9.695-20.574-8.415   c-3.396,0.712-6.346,3.155-8.312,6.878c-2.538,4.791-3.042,10.924-1.258,15.256c0.455,1.103,1.524,1.773,2.648,1.773   c0.365,0,0.732-0.068,1.09-0.219c1.461-0.603,2.159-2.272,1.555-3.734c-1.134-2.755-0.703-7.128,1.027-10.399   c0.67-1.267,2.139-3.471,4.342-3.936c4.658-0.821,10.493,3.374,16.134,7.443c4.658,3.356,9.056,6.532,13.388,7.525   c6.666,1.793,12.316,1.047,16.786-2.204c5.311-3.86,8.504-11.245,8.993-20.813C78.861,47.305,65.346,37.005,55.204,30.368z    M39.056,20.818l-0.773-0.368l-0.368,0.775c0,0-0.137,0.281-0.334,0.698l-1.706,3.626l2.739-0.038l-0.021,2.238l-2.929-0.114   l-0.214-0.046c-0.291-0.224-1.069-0.943-1.549-1.384c-0.541-0.498-0.869-0.799-1.09-0.989c0.445-0.955,1.251-2.652,1.793-3.802   l0.331-0.696c0.181-0.382,0.301-0.639,0.301-0.639l0.357-0.773l-0.963-0.454c1.083-0.405,2.562-0.96,3.332-1.251l1.23,3.28   C39.102,20.844,39.056,20.818,39.056,20.818z M38.223,15.602l1.772-2.334l0.187-0.168c0.368-0.113,1.388-0.337,2.026-0.477   c0.703-0.154,1.135-0.251,1.418-0.325c0.228,0.406,0.542,0.95,0.873,1.526c0.596,1.039,1.248,2.176,1.602,2.797l0.767,1.345   l0.933-0.532c-0.28,1.114-0.672,2.649-0.879,3.448l-3.396-0.873c0.081-0.044,0.132-0.074,0.132-0.074l0.748-0.428L41.6,14.612   l-1.548,2.286L38.223,15.602z M49.751,27.095c-0.221,0.702-0.354,1.133-0.428,1.414h-6.527v1.068   c-0.828-0.803-1.966-1.906-2.555-2.481l2.441-2.508V25.6h5.632l-1.23-2.518l2.032-0.939l1.146,2.707l0.064,0.308   C50.231,25.56,49.933,26.5,49.751,27.095z" fill="#D80027"/>
</g>
<g>
</g>
<g>
</g>
<g>
</g>
<g>
</g>
<g>
</g>
<g>
</g>
<g>
</g>
<g>
</g>
<g>
</g>
<g>
</g>
<g>
</g>
<g>
</g>
<g>
</g>
<g>
</g>
<g>
</g>
</svg>
