<?xml version="1.0" encoding="iso-8859-1"?>
<!-- Generator: Adobe Illustrator 16.0.0, SVG Export Plug-In . SVG Version: 6.00 Build 0)  -->
<!DOCTYPE svg PUBLIC "-//W3C//DTD SVG 1.1//EN" "http://www.w3.org/Graphics/SVG/1.1/DTD/svg11.dtd">
<svg xmlns="http://www.w3.org/2000/svg" xmlns:xlink="http://www.w3.org/1999/xlink" version="1.1" id="Capa_1" x="0px" y="0px" width="512px" height="512px" viewBox="0 0 190.353 190.353" style="enable-background:new 0 0 190.353 190.353;" xml:space="preserve">
<g>
	<g>
		<path d="M152.813,121.625c0,4.47-3.629,8.111-8.11,8.111H13.701c-4.479,0-8.114-3.642-8.114-8.111V51.14    c0-4.473,3.635-8.114,8.114-8.114h72.534v-5.583H13.701C6.168,37.443,0,43.608,0,51.14v87.254c0,7.527,6.168,13.695,13.701,13.695    h59.908v11.666H31.688l-5.587,5.597v5.583h106.204v-5.583l-5.596-5.597H84.789v-11.666h59.908c7.544,0,13.706-6.168,13.706-13.695    v-53.34h-5.59V121.625z" fill="#FFFFFF"/>
		<polygon points="190.353,15.418 91.821,15.418 141.085,47.435   " fill="#FFFFFF"/>
		<polygon points="91.821,20.344 91.821,58.38 143.242,58.38 143.242,79.46 190.353,79.46 190.353,20.344 141.085,52.367   " fill="#FFFFFF"/>
		<polygon points="72.787,67.209 72.787,106.134 137.652,106.134 137.652,67.209 105.214,88.296   " fill="#FFFFFF"/>
		<polygon points="72.787,63.967 105.214,85.054 137.652,63.967   " fill="#FFFFFF"/>
	</g>
</g>
<g>
</g>
<g>
</g>
<g>
</g>
<g>
</g>
<g>
</g>
<g>
</g>
<g>
</g>
<g>
</g>
<g>
</g>
<g>
</g>
<g>
</g>
<g>
</g>
<g>
</g>
<g>
</g>
<g>
</g>
</svg>
